<svg xmlns="http://www.w3.org/2000/svg" width="93" height="93" viewBox="0 0 93 93">
  <g id="admin_panel_settings_black_24dp" transform="translate(-0.064 0.354)">
    <g id="Group_5123" data-name="Group 5123" transform="translate(0 0)">
      <rect id="Rectangle_27" data-name="Rectangle 27" width="93" height="93" transform="translate(0.064 -0.354)" fill="none"/>
    </g>
    <g id="Group_5125" data-name="Group 5125" transform="translate(8.25 7.398)">
      <g id="Group_5124" data-name="Group 5124">
        <circle id="Ellipse_346" data-name="Ellipse 346" cx="4.313" cy="4.313" r="4.313" transform="translate(49.604 43.827)" fill="#4169cf"/>
        <path id="Path_1903" data-name="Path 1903" d="M23.387,17.5c-2.811,0-8.434,1.386-8.627,4.159a10.511,10.511,0,0,0,17.254,0C31.821,18.886,26.2,17.5,23.387,17.5Z" transform="translate(30.531 38.343)" fill="#4169cf" fill-rule="evenodd"/>
        <path id="Path_1904" data-name="Path 1904" d="M60.769,34.157V15.594L31.885,3,3,15.594V34.5C3,51.988,15.324,68.356,31.885,72.323A35.3,35.3,0,0,0,38.047,70.2,23.09,23.09,0,1,0,60.769,34.157ZM33.81,56.918a22.206,22.206,0,0,0,.886,6.239,25.368,25.368,0,0,1-2.811,1.155C19.676,60.461,10.7,47.983,10.7,34.5V20.639L31.885,11.4l21.182,9.243V34.157A23.1,23.1,0,0,0,33.81,56.918ZM56.918,72.323A15.405,15.405,0,1,1,72.323,56.918,15.4,15.4,0,0,1,56.918,72.323Z" transform="translate(-3 -3)" fill="#4169cf" fill-rule="evenodd"/>
      </g>
    </g>
  </g>
</svg>
