<svg xmlns="http://www.w3.org/2000/svg" width="95" height="94" viewBox="0 0 95 94">
  <g id="delivery_dining_black_24dp" transform="translate(0.046 -0.475)">
    <g id="Group_5126" data-name="Group 5126" transform="translate(0)">
      <rect id="Rectangle_28" data-name="Rectangle 28" width="95" height="94" transform="translate(-0.046 0.475)" fill="none"/>
    </g>
    <g id="Group_5129" data-name="Group 5129" transform="translate(8.001 19.984)">
      <g id="Group_5128" data-name="Group 5128">
        <g id="Group_5127" data-name="Group 5127">
          <path id="Path_1909" data-name="Path 1909" d="M68.272,12.8a7.82,7.82,0,0,0-7.8-7.8h-11.7v7.8h11.7V23.127L46.909,40.085H33.187V20.594H17.594A15.589,15.589,0,0,0,2,36.187v11.7H9.8a11.7,11.7,0,1,0,23.39,0H50.652L68.272,25.856ZM9.8,40.085v-3.9a7.82,7.82,0,0,1,7.8-7.8h7.8v11.7Zm11.7,11.7a3.91,3.91,0,0,1-3.9-3.9h7.8A3.91,3.91,0,0,1,21.492,51.781Z" transform="translate(-2 -5)" fill="#4169cf"/>
          <rect id="Rectangle_29" data-name="Rectangle 29" width="19" height="10" transform="translate(11.953 2.491)" fill="#4169cf"/>
          <path id="Path_1910" data-name="Path 1910" d="M27.7,13a11.7,11.7,0,1,0,11.7,11.7A11.679,11.679,0,0,0,27.7,13Zm0,15.594a3.9,3.9,0,1,1,3.9-3.9A3.91,3.91,0,0,1,27.7,28.594Z" transform="translate(38.577 18.187)" fill="#4169cf"/>
        </g>
      </g>
    </g>
  </g>
</svg>
