<svg id="perm_identity_black_24dp" xmlns="http://www.w3.org/2000/svg" width="78.794" height="78.794" viewBox="0 0 78.794 78.794">
  <path id="Path_1905" data-name="Path 1905" d="M0,0H78.794V78.794H0Z" fill="none"/>
  <path id="Path_1906" data-name="Path 1906" d="M37.667,12.417a8.417,8.417,0,1,1-8.417,8.417,8.441,8.441,0,0,1,8.417-8.417m0,37.875c11.362,0,24.408,5.429,25.25,8.417v4.208h-50.5V58.75c.842-3.03,13.887-8.459,25.25-8.459M37.667,4A16.833,16.833,0,1,0,54.5,20.833,16.829,16.829,0,0,0,37.667,4Zm0,37.875C26.43,41.875,4,47.514,4,58.708V71.333H71.333V58.708C71.333,47.514,48.9,41.875,37.667,41.875Z" transform="translate(1.73 1.73)" fill="#4169cf"/>
</svg>
