<svg id="perm_identity_black_24dp" xmlns="http://www.w3.org/2000/svg" width="70.369" height="70.369" viewBox="0 0 70.369 70.369">
  <path id="Path_1905" data-name="Path 1905" d="M0,0H70.369V70.369H0Z" fill="none"/>
  <path id="Path_1906" data-name="Path 1906" d="M34.067,11.517a7.517,7.517,0,1,1-7.517,7.517,7.539,7.539,0,0,1,7.517-7.517m0,33.825c10.147,0,21.8,4.848,22.55,7.517v3.758h-45.1V52.9c.752-2.706,12.4-7.554,22.55-7.554M34.067,4A15.033,15.033,0,1,0,49.1,19.033,15.029,15.029,0,0,0,34.067,4Zm0,33.825C24.032,37.825,4,42.861,4,52.858V64.133H64.133V52.858C64.133,42.861,44.1,37.825,34.067,37.825Z" transform="translate(1.118 1.118)" fill="#fdc200"/>
</svg>
